<svg xmlns="http://www.w3.org/2000/svg" viewBox="0 0 400 400"><defs><style>.cls-1{fill:#fff;stroke:#fff;stroke-miterlimit:10;}</style></defs><g id="Layer_2" data-name="Layer 2"><rect width="400" height="400"/></g><g id="Layer_1" data-name="Layer 1"><path class="cls-1" d="M141,160.5s7.25-18.26,26.66-17.27,24.68,14.27,25.82,17.27H213.8s-8.82-31.14-46.58-31.14S121.4,160.5,121.4,160.5Z"/><path class="cls-1" d="M141,204.5s7.25,18.26,26.66,17.27,24.68-15.27,25.82-17.27H213.8s-8.82,31.14-46.58,31.14S121.4,204.5,121.4,204.5Z"/><path class="cls-1" d="M218.7,214c5.49,3.59,15.2,7.4,24.49,7.4,13.52,0,19.85-6.76,19.85-15.21,0-8.87-5.28-13.72-19-18.79-18.37-6.55-27-16.68-27-28.93,0-16.47,13.3-30,35.26-30,10.35,0,19.43,3,25.13,6.34l-4.64,13.51a39.84,39.84,0,0,0-20.91-5.91c-11,0-17.1,6.34-17.1,13.94,0,8.44,6.12,12.25,19.43,17.31,17.73,6.76,26.81,15.63,26.81,30.83,0,17.95-13.93,30.62-38.22,30.62-11.19,0-21.54-2.74-28.72-7Z"/><polygon class="cls-1" points="201.03 123.81 167.35 90.13 133.58 123.91 201.03 123.81"/><polygon class="cls-1" points="133.04 239.79 166.72 273.47 200.5 239.7 133.04 239.79"/></g></svg>